<svg width="24" height="24" viewBox="0 0 24 24" fill="none" xmlns="http://www.w3.org/2000/svg">
<g clip-path="url(#clip0_1884_8218)">
<path d="M12 23.5C5.659 23.5 0.5 18.341 0.5 12C0.5 5.659 5.659 0.5 12 0.5C18.341 0.5 23.5 5.659 23.5 12C23.5 18.341 18.341 23.5 12 23.5ZM12 1.5C6.21 1.5 1.5 6.21 1.5 12C1.5 17.79 6.21 22.5 12 22.5C17.79 22.5 22.5 17.79 22.5 12C22.5 6.21 17.79 1.5 12 1.5Z" fill="#FFFFFF"/>
<path d="M18 12.5H12C11.724 12.5 11.5 12.276 11.5 12V4C11.5 3.724 11.724 3.5 12 3.5C12.276 3.5 12.5 3.724 12.5 4V11.5H18C18.276 11.5 18.5 11.724 18.5 12C18.5 12.276 18.276 12.5 18 12.5Z" fill="#FFFFFF"/>
</g>
<defs>
<clipPath id="clip0_1884_8218">
<rect width="24" height="24" fill="white"/>
</clipPath>
</defs>
</svg>
