<svg width="29" height="22" viewBox="0 0 29 22" fill="none" xmlns="http://www.w3.org/2000/svg">
<path fill-rule="evenodd" clip-rule="evenodd" d="M6.8648 3.08068C7.16404 3.31174 7.3326 3.6356 7.37048 4.05227H10.0637C10.0561 3.32878 9.86859 2.69242 9.50117 2.14318C9.13374 1.59394 8.6167 1.1678 7.95003 0.864768C7.28715 0.55795 6.50495 0.404541 5.60344 0.404541C4.72086 0.404541 3.93488 0.556056 3.24548 0.859087C2.55609 1.16212 2.01632 1.58447 1.62617 2.12613C1.23601 2.6678 1.04283 3.29848 1.04662 4.01818C1.04283 4.90075 1.33071 5.60151 1.91026 6.12045C2.4898 6.6356 3.28336 7.00871 4.29094 7.23977L5.50685 7.52386C5.93109 7.62234 6.27957 7.7303 6.5523 7.84772C6.82882 7.96136 7.03336 8.09772 7.16594 8.25681C7.29851 8.41212 7.3667 8.59962 7.37048 8.81931C7.3667 9.05416 7.29283 9.2625 7.14889 9.44431C7.00495 9.62613 6.79851 9.76818 6.52957 9.87045C6.26442 9.97272 5.94245 10.0239 5.56367 10.0239C5.15079 10.0239 4.78715 9.95947 4.47276 9.83068C4.16215 9.70189 3.91783 9.5125 3.7398 9.2625C3.56177 9.0125 3.46139 8.7 3.43867 8.325H0.745483C0.756847 9.23409 0.963286 9.98598 1.3648 10.5807C1.76632 11.1754 2.32882 11.6186 3.0523 11.9102C3.77579 12.2019 4.62427 12.3477 5.59776 12.3477C6.56745 12.3477 7.3951 12.2076 8.08071 11.9273C8.7701 11.647 9.29851 11.2436 9.66594 10.717C10.0334 10.1905 10.219 9.55984 10.2228 8.825C10.219 8.35909 10.1394 7.93863 9.98412 7.56363C9.82882 7.18863 9.59965 6.85719 9.29662 6.56931C8.99738 6.28144 8.62617 6.03333 8.18298 5.825C7.74359 5.61666 7.23601 5.45 6.66026 5.325L5.66026 5.09772C5.3951 5.0409 5.15647 4.97462 4.94435 4.89886C4.73223 4.8231 4.55041 4.73598 4.39889 4.6375C4.25117 4.53522 4.13753 4.4178 4.05798 4.28522C3.98223 4.15265 3.94813 3.99924 3.95571 3.825C3.9595 3.61287 4.022 3.42537 4.14321 3.2625C4.26442 3.09583 4.44624 2.96515 4.68867 2.87045C4.93109 2.77575 5.23412 2.7284 5.59776 2.7284C6.147 2.7284 6.56935 2.84583 6.8648 3.08068ZM15.3864 12.2929V19.0502C15.2098 19.0852 15.0178 19.1027 14.8106 19.1027C14.5217 19.1027 14.2498 19.0517 13.9949 18.9498C13.2303 18.6524 12.848 17.6626 12.848 15.9804V4H10.2991V15.9931C10.2991 17.4459 10.5795 18.5929 11.1403 19.434C11.8624 20.5045 13.0391 21.0398 14.6704 21.0398C14.8148 21.0398 14.9635 21.0313 15.1164 21.0143L15.3864 20.9851V21.0202H18.1648V15.8554C18.1648 15.5675 18.216 15.3175 18.3182 15.1054C18.4243 14.8933 18.5701 14.7304 18.7557 14.6168C18.9413 14.4994 19.1553 14.4406 19.3978 14.4406C19.7576 14.4406 20.0474 14.5581 20.2671 14.7929C20.4868 15.0278 20.5966 15.3478 20.5966 15.7531V21.0202H23.2671V15.81C23.2671 15.3933 23.375 15.0619 23.591 14.8156C23.8107 14.5656 24.1118 14.4406 24.4944 14.4406C24.8504 14.4406 25.1402 14.5562 25.3637 14.7872C25.5872 15.0145 25.6989 15.3459 25.6989 15.7815V21.0202H28.4773V15.1452C28.4773 14.2247 28.2197 13.5012 27.7046 12.9747C27.1894 12.4444 26.519 12.1793 25.6932 12.1793C25.0493 12.1793 24.4906 12.3365 24.0171 12.6509C23.5436 12.9615 23.2254 13.3762 23.0625 13.8952H22.9716C22.8542 13.3725 22.5796 12.9558 22.1478 12.6452C21.716 12.3346 21.197 12.1793 20.591 12.1793C19.9925 12.1793 19.4773 12.3327 19.0455 12.6395C18.6137 12.9463 18.3069 13.3649 18.125 13.8952H18.0285V12.2929H15.3864Z" fill="#69ba2e"/>
</svg>
