<svg width="93" height="43" viewBox="0 0 93 43" fill="none" xmlns="http://www.w3.org/2000/svg">
<path fill-rule="evenodd" clip-rule="evenodd" d="M3 3H90V40H3V3ZM0 0H3H90H93V3V40V43H90H3H0V40V3V0ZM15.331 10.6009C15.705 10.8897 15.9157 11.2946 15.9631 11.8154H19.3295C19.3201 10.911 19.0857 10.1156 18.6264 9.42903C18.1671 8.74248 17.5208 8.20981 16.6875 7.83102C15.8589 7.4475 14.8811 7.25574 13.7542 7.25574C12.651 7.25574 11.6685 7.44513 10.8068 7.82392C9.94506 8.20271 9.27035 8.73064 8.78266 9.40773C8.29497 10.0848 8.05349 10.8732 8.05822 11.7728C8.05349 12.876 8.41334 13.7519 9.13777 14.4006C9.8622 15.0446 10.8542 15.5109 12.1136 15.7998L13.6335 16.1549C14.1638 16.278 14.5994 16.4129 14.9403 16.5597C15.286 16.7018 15.5417 16.8722 15.7074 17.0711C15.8731 17.2652 15.9583 17.4996 15.9631 17.7742C15.9583 18.0678 15.866 18.3282 15.6861 18.5555C15.5061 18.7827 15.2481 18.9603 14.9119 19.0881C14.5805 19.216 14.178 19.2799 13.7045 19.2799C13.1884 19.2799 12.7339 19.1994 12.3409 19.0384C11.9526 18.8774 11.6472 18.6407 11.4247 18.3282C11.2022 18.0157 11.0767 17.6251 11.0483 17.1563H7.6818C7.69601 18.2927 7.95406 19.2325 8.45595 19.9759C8.95785 20.7193 9.66097 21.2733 10.5653 21.6378C11.4697 22.0024 12.5303 22.1847 13.7471 22.1847C14.9593 22.1847 15.9938 22.0095 16.8508 21.6591C17.7126 21.3088 18.3731 20.8045 18.8324 20.1464C19.2917 19.4882 19.5237 18.6999 19.5284 17.7813C19.5237 17.1989 19.4242 16.6734 19.2301 16.2046C19.036 15.7359 18.7495 15.3216 18.3707 14.9617C17.9967 14.6019 17.5327 14.2917 16.9787 14.0313C16.4294 13.7709 15.795 13.5626 15.0753 13.4063L13.8253 13.1222C13.4938 13.0512 13.1955 12.9683 12.9304 12.8736C12.6652 12.7789 12.438 12.67 12.2486 12.5469C12.0639 12.4191 11.9219 12.2723 11.8224 12.1066C11.7277 11.9409 11.6851 11.7491 11.6946 11.5313C11.6993 11.2662 11.7774 11.0318 11.929 10.8282C12.0805 10.6198 12.3078 10.4565 12.6108 10.3381C12.9138 10.2198 13.2926 10.1606 13.7471 10.1606C14.4337 10.1606 14.9616 10.3073 15.331 10.6009ZM24.777 18.7252V22.0001H21.304V7.4546H24.777V14.9972H24.9332L28.0014 11.091H31.9361L28.0623 15.8457L32.0923 22.0001H28.0795L25.4799 17.8743L24.777 18.7252ZM33.179 11.091V22.0001H36.652V11.091H33.179ZM33.6619 9.3367C34.0123 9.65867 34.4313 9.81966 34.919 9.81966C35.4114 9.81966 35.8305 9.65867 36.1761 9.3367C36.5265 9.01 36.7017 8.61701 36.7017 8.15773C36.7017 7.70318 36.5265 7.31492 36.1761 6.99295C35.8305 6.66625 35.4114 6.5029 34.919 6.5029C34.4313 6.5029 34.0123 6.66625 33.6619 6.99295C33.3115 7.31492 33.1364 7.70318 33.1364 8.15773C33.1364 8.61701 33.3115 9.01 33.6619 9.3367ZM45.1008 25.0909V33.4638C44.8489 33.5197 44.5726 33.5476 44.2719 33.5476C43.8911 33.5476 43.5328 33.4805 43.1969 33.3461C42.1891 32.9541 41.6851 31.6496 41.6851 29.4324V11.0062H38.3258V29.4492C38.3258 31.364 38.6953 32.8758 39.4344 33.9844C40.3862 35.3953 41.9371 36.1008 44.0871 36.1008C44.2775 36.1008 44.4734 36.0896 44.675 36.0672L45.2963 36H48.5738V29.544C48.5738 29.1842 48.6377 28.8717 48.7655 28.6065C48.8981 28.3414 49.0804 28.1378 49.3124 27.9957C49.5444 27.849 49.8119 27.7756 50.115 27.7756C50.5648 27.7756 50.927 27.9223 51.2016 28.2159C51.4762 28.5095 51.6135 28.9096 51.6135 29.4162V36H54.9516V29.4872C54.9516 28.9664 55.0866 28.5521 55.3564 28.2443C55.6311 27.9318 56.0075 27.7756 56.4857 27.7756C56.9308 27.7756 57.293 27.92 57.5724 28.2088C57.8517 28.4929 57.9914 28.9072 57.9914 29.4517V36H61.4644V28.6562C61.4644 27.5057 61.1424 26.6013 60.4985 25.9432C59.8546 25.2803 59.0165 24.9489 57.9843 24.9489C57.1794 24.9489 56.481 25.1454 55.8891 25.5384C55.2973 25.9266 54.8995 26.4451 54.6959 27.0938H54.5823C54.4355 26.4403 54.0922 25.9195 53.5525 25.5312C53.0127 25.143 52.364 24.9489 51.6064 24.9489C50.8583 24.9489 50.2144 25.1406 49.6746 25.5241C49.1349 25.9077 48.7513 26.4309 48.5241 27.0938H48.4033V25.0909H45.1008ZM64.838 35.8366C65.3778 36.0687 65.9957 36.1847 66.6917 36.1847C67.1983 36.1847 67.6528 36.1207 68.0553 35.9929C68.4625 35.8651 68.8153 35.6733 69.1135 35.4176C69.4166 35.1619 69.6652 34.8494 69.8593 34.4801H69.9445V36H73.2116V28.5852C73.2116 28.0076 73.0908 27.4938 72.8493 27.044C72.6126 26.5942 72.2764 26.2154 71.8408 25.9077C71.4052 25.5952 70.8939 25.3584 70.3067 25.1974C69.7196 25.0317 69.078 24.9489 68.382 24.9489C67.4066 24.9489 66.5709 25.1004 65.8749 25.4034C65.1836 25.7017 64.6391 26.1136 64.2414 26.6392C63.8484 27.16 63.6046 27.7519 63.5099 28.4148L66.713 28.5284C66.7887 28.178 66.9663 27.9034 67.2457 27.7045C67.525 27.5057 67.8943 27.4062 68.3536 27.4062C68.7797 27.4062 69.1183 27.5057 69.3692 27.7045C69.6202 27.9034 69.7457 28.1851 69.7457 28.5497V28.5852C69.7457 28.8078 69.6581 28.9806 69.4829 29.1037C69.3124 29.2221 69.0378 29.3144 68.659 29.3807C68.2802 29.4422 67.7807 29.5014 67.1604 29.5582C66.6064 29.6056 66.0856 29.6979 65.5979 29.8352C65.1102 29.9678 64.6794 30.1643 64.3053 30.4247C63.9313 30.6851 63.6377 31.0237 63.4246 31.4403C63.2116 31.857 63.105 32.3684 63.105 32.9744C63.105 33.6941 63.2589 34.2931 63.5667 34.7713C63.8792 35.2448 64.3029 35.5999 64.838 35.8366ZM68.7726 33.6847C68.4743 33.8362 68.1382 33.9119 67.7641 33.9119C67.3664 33.9119 67.0373 33.8172 66.7769 33.6278C66.5212 33.4384 66.3934 33.1638 66.3934 32.804C66.3934 32.5672 66.4526 32.3636 66.5709 32.1932C66.694 32.018 66.8692 31.8759 67.0965 31.767C67.3285 31.6581 67.6079 31.5777 67.9346 31.5256C68.0956 31.5019 68.2636 31.4759 68.4388 31.4474C68.614 31.419 68.7845 31.3859 68.9502 31.348C69.1159 31.3101 69.2674 31.2699 69.4047 31.2273C69.5468 31.1847 69.6675 31.1373 69.767 31.0852V32.1222C69.767 32.4773 69.677 32.7898 69.4971 33.0597C69.3171 33.3248 69.0757 33.5331 68.7726 33.6847ZM80.0866 28.6847L78.2897 25.0909H74.767L77.7783 30.5455L74.6107 36H78.1334L80.0866 32.3778L82.0894 36H85.5624L82.4019 30.5455L85.4488 25.0909H81.9474L80.0866 28.6847Z" fill="#00B300"/>
</svg>
