<svg width="24" height="24" viewBox="0 0 24 24" fill="none" xmlns="http://www.w3.org/2000/svg">
<path d="M15.1664 21.1842V20.8175C15.1666 20.3665 14.8013 20.0008 14.3505 20.0001H14.1664V9.00014H14.3505C14.8008 8.99965 15.1659 8.63458 15.1664 8.18423V7.81753C15.1666 7.36652 14.8013 7.0008 14.3505 7.00015H13.8331V6.93114C13.8318 5.68114 12.8187 4.66813 11.5687 4.66682H11.1664V3.66683C11.1664 3.48275 11.0172 3.3335 10.8331 3.3335H8.83308C8.64899 3.3335 8.49974 3.48275 8.49974 3.66683V4.66682H8.0974C6.8474 4.66813 5.83439 5.68114 5.83309 6.93114V7.00015H5.31583C4.86531 7.0008 4.50041 7.36571 4.49976 7.81623V8.18293C4.49959 8.63377 4.86483 8.99965 5.31583 9.00014H5.49975V20.0001H5.31583C4.86531 20.0008 4.50041 20.3657 4.49976 20.8162V21.1829C4.49959 21.6337 4.86483 21.9996 5.31583 22.0001H14.3492C14.8 22.0004 15.1659 21.6352 15.1664 21.1842ZM9.16641 4.00016H10.4997V4.66682H9.16641V4.00016ZM6.49975 6.93114C6.50105 6.04931 7.21557 5.33479 8.0974 5.33349H11.5687C12.4506 5.33479 13.1651 6.04931 13.1664 6.93114V7.00015H6.49975V6.93114ZM5.16642 8.18423V7.81753C5.16626 7.77782 5.18172 7.73941 5.20988 7.71125C5.23787 7.68293 5.27596 7.66698 5.31583 7.66681H14.3492C14.4315 7.66714 14.4983 7.73387 14.4984 7.81623V8.18293C14.4983 8.26528 14.4315 8.33201 14.3492 8.33218H5.31583C5.23397 8.33201 5.1674 8.2661 5.16642 8.18423ZM6.16642 10.8175C8.19848 10.9936 9.75853 12.6945 9.75853 14.7342C9.75853 16.7739 8.19848 18.4749 6.16642 18.6508V10.8175ZM6.16642 19.3152C8.56973 19.1435 10.4317 17.1438 10.4317 14.7345C10.4317 12.3252 8.56973 10.3255 6.16642 10.1539V9.00014H13.4997V20.0001H6.16642V19.3152ZM5.16642 21.1819V20.8152C5.16723 20.7332 5.2338 20.6671 5.31583 20.6668H14.3492C14.4315 20.6671 14.4983 20.7338 14.4984 20.8162V21.1829C14.4983 21.2652 14.4315 21.332 14.3492 21.3321H5.31583C5.23397 21.332 5.1674 21.2661 5.16642 21.1842V21.1819Z" fill="black"/>
<path d="M12.5001 11.3333C12.316 11.3333 12.1667 11.4825 12.1667 11.6666V18.9999C12.1667 19.184 12.316 19.3333 12.5001 19.3333C12.6842 19.3333 12.8334 19.184 12.8334 18.9999V11.6666C12.8334 11.4825 12.6842 11.3333 12.5001 11.3333Z" fill="black"/>
<path d="M12.5001 9.6665C12.316 9.6665 12.1667 9.81576 12.1667 9.99984V10.3332C12.1667 10.5173 12.316 10.6665 12.5001 10.6665C12.6842 10.6665 12.8334 10.5173 12.8334 10.3332V9.99984C12.8334 9.81576 12.6842 9.6665 12.5001 9.6665Z" fill="black"/>
<path d="M19.1665 4H15.4998C15.3158 4 15.1665 4.14925 15.1665 4.33334C15.1665 4.51742 15.3158 4.66667 15.4998 4.66667H19.1665C19.3506 4.66667 19.4998 4.51742 19.4998 4.33334C19.4998 4.14925 19.3506 4 19.1665 4Z" fill="black"/>
<path d="M15.1733 3.06685C15.205 3.22212 15.3416 3.33361 15.5 3.33345C15.5224 3.33361 15.5447 3.3315 15.5667 3.32678L18.9 2.66011C19.0803 2.62333 19.1967 2.44722 19.1599 2.26688C19.1232 2.08638 18.947 1.97 18.7667 2.00679L15.4334 2.67346C15.2529 2.71024 15.1365 2.88651 15.1733 3.06685Z" fill="black"/>
<path d="M18.6055 6.35068L15.6056 5.35068C15.4308 5.29241 15.2418 5.38714 15.1837 5.56194C15.1254 5.73691 15.2201 5.92588 15.395 5.98398L18.3949 6.98398C18.5699 7.04225 18.7587 6.94752 18.817 6.77272C18.8751 6.59775 18.7805 6.40879 18.6055 6.35068Z" fill="black"/>
<path d="M13.4998 4C13.3158 4 13.1665 4.14925 13.1665 4.33334C13.1665 4.51742 13.3158 4.66667 13.4998 4.66667H14.1665C14.3506 4.66667 14.4998 4.51742 14.4998 4.33334C14.4998 4.14925 14.3506 4 14.1665 4H13.4998Z" fill="black"/>
</svg>
