<svg width="24" height="24" viewBox="0 0 24 24" fill="none" xmlns="http://www.w3.org/2000/svg">
<path d="M14 3.5C17.584 3.5 20.5 6.416 20.5 10C20.5 10.276 20.724 10.5 21 10.5C21.276 10.5 21.5 10.276 21.5 10C21.5 5.864 18.136 2.5 14 2.5C13.724 2.5 13.5 2.724 13.5 3C13.5 3.276 13.724 3.5 14 3.5ZM14 7.5C15.379 7.5 16.5 8.622 16.5 10C16.5 10.276 16.724 10.5 17 10.5C17.276 10.5 17.5 10.276 17.5 10C17.5 8.07 15.93 6.5 14 6.5C13.724 6.5 13.5 6.724 13.5 7C13.5 7.276 13.724 7.5 14 7.5ZM19.999 15.009C18.827 15.009 17.679 14.826 16.591 14.467C16.061 14.284 15.457 14.426 15.108 14.781L12.951 16.41C10.477 15.09 8.893 13.507 7.589 11.049L9.174 8.943C9.573 8.543 9.716 7.96 9.545 7.413C9.184 6.319 9 5.17 9 4C9 3.173 8.327 2.5 7.5 2.5H4C3.173 2.5 2.5 3.173 2.5 4C2.5 13.649 10.351 21.5 20 21.5C20.827 21.5 21.5 20.827 21.499 20V16.509C21.499 15.682 20.826 15.009 19.999 15.009ZM20.5 20C20.5 20.276 20.275 20.5 20 20.5C10.902 20.5 3.5 13.098 3.5 4C3.5 3.724 3.725 3.5 4 3.5H7.5C7.775 3.5 8 3.724 8 4C8 5.277 8.2 6.531 8.592 7.72C8.65 7.907 8.603 8.1 8.42 8.29L6.6 10.7C6.485 10.853 6.467 11.058 6.554 11.228C8.037 14.141 9.838 15.943 12.772 17.446C12.941 17.534 13.148 17.516 13.301 17.4L15.763 15.534C15.896 15.403 16.093 15.355 16.272 15.415C17.468 15.81 18.722 16.01 20 16.01C20.275 16.01 20.5 16.234 20.5 16.51V20Z" fill="#FFFFFF"/>
</svg>
