<svg width="24" height="24" viewBox="0 0 24 24" fill="none" xmlns="http://www.w3.org/2000/svg">
<path d="M15.5 7C12.467 7 10 9.467 10 12.5C10 15.533 12.467 18 15.5 18C18.533 18 21 15.533 21 12.5C21 9.467 18.533 7 15.5 7ZM15.86 15.85C15.76 15.95 15.63 16 15.5 16C15.37 16 15.24 15.95 15.15 15.85C15.05 15.76 15 15.63 15 15.5C15 15.37 15.05 15.24 15.15 15.15C15.34 14.96 15.66 14.96 15.85 15.14C15.95 15.24 16 15.37 16 15.5C16 15.63 15.95 15.76 15.86 15.85ZM16.001 12.908L16 13.5C16 13.776 15.776 14 15.5 14C15.224 14 15 13.775 15 13.5L15.001 12.5C15.001 12.263 15.168 12.059 15.4 12.011L15.509 11.99C16.526 11.802 17 11.487 17 11C17 10.458 16.312 10 15.499 10C14.716 10 14.042 10.424 13.999 10.946C13.977 11.221 13.732 11.436 13.459 11.402C13.184 11.379 12.98 11.137 13.003 10.862C13.091 9.801 14.165 9 15.499 9C16.878 9 18 9.897 18 11C18 11.955 17.328 12.596 16.001 12.908Z" fill="#00b300"/>
<path d="M17.5 0H6.5C4.57 0 3 1.57 3 3.5V23.5C3 23.702 3.122 23.885 3.309 23.962C3.37 23.988 3.436 24 3.5 24C3.63 24 3.758 23.949 3.854 23.854L9.502 18.205C11.744 20.418 14.842 23.492 15.052 23.721C15.114 23.846 15.225 23.942 15.365 23.981C15.579 24.042 15.81 23.951 15.928 23.76C15.98 23.676 16.004 23.578 16 23.481V19.5C16 19.224 15.776 19 15.5 19C11.916 19 9 16.084 9 12.5C9 8.916 11.916 6 15.5 6C15.776 6 16 5.776 16 5.5V2.5C16 1.673 16.673 1 17.5 1C17.776 1 18 0.776 18 0.5C18 0.224 17.776 0 17.5 0Z" fill="#00b300"/>
<path d="M17.5 0H15C14.724 0 14.5 0.224 14.5 0.5V3.5C14.5 3.776 14.724 4 15 4H16V2.5C16 1.673 16.673 1 17.5 1C17.776 1 18 1.224 18 1.5C18 1.776 17.776 2 17.5 2C17.225 2 17 2.224 17 2.5V4H19.5C19.776 4 20 3.776 20 3.5V2.5C20 1.122 18.879 0 17.5 0Z" fill="#00b300"/>
</svg>
